# xmcd CD database file
#
# Track frame offsets:
#	172
#	25780
#	52319
#	76689
#	102018
#	125579
#	137296
#	166250
#
# Disc length: 2508 seconds
#
# Revision: 0
# Processed by: cddbd v1.5.2PL0 Copyright (c) Steve Scherf et al.
# Submitted via: CDex 1.70beta1
#
DISCID=5a09ca08
DTITLE=jazzQUARTELL - september songs
DYEAR=2008
DGENRE=Jazz
TTITLE0=jazzQUARTELL - Windmills of your mind
TTITLE1=jazzQUARTELL - Blue in Green
TTITLE2=jazzQUARTELL - Stella by Starlight
TTITLE3=jazzQUARTELL - Rainbow Blues
TTITLE4=jazzQUARTELL - How insensitive
TTITLE5=jazzQUARTELL - Lullaby of Birdland
TTITLE6=jazzQUARTELL - My one and only love
TTITLE7=jazzQUARTELL - On Green dolphin street
EXTD=YEAR: 2008
EXTT0=
EXTT1=
EXTT2=
EXTT3=
EXTT4=
EXTT5=
EXTT6=
EXTT7=
PLAYORDER=
